<svg xmlns="http://www.w3.org/2000/svg" width="512" height="512" viewBox="0 0 512 512" role="img" aria-labelledby="title desc">
  <title id="title">Vexra logo</title>
  <desc id="desc">A database cylinder with connected vector nodes forming a V shape.</desc>
  <defs>
    <linearGradient id="bg" x1="80" y1="64" x2="432" y2="448" gradientUnits="userSpaceOnUse">
      <stop offset="0" stop-color="#071524"/>
      <stop offset="0.55" stop-color="#10243A"/>
      <stop offset="1" stop-color="#052E35"/>
    </linearGradient>
    <linearGradient id="edge" x1="128" y1="150" x2="384" y2="350" gradientUnits="userSpaceOnUse">
      <stop offset="0" stop-color="#66F0D5"/>
      <stop offset="0.45" stop-color="#4FB7FF"/>
      <stop offset="1" stop-color="#B0F3FF"/>
    </linearGradient>
    <linearGradient id="signal" x1="145" y1="185" x2="367" y2="185" gradientUnits="userSpaceOnUse">
      <stop offset="0" stop-color="#F6D365"/>
      <stop offset="1" stop-color="#FF8A65"/>
    </linearGradient>
    <radialGradient id="glow" cx="50%" cy="50%" r="50%">
      <stop offset="0" stop-color="#4FB7FF" stop-opacity="0.34"/>
      <stop offset="0.58" stop-color="#16D9C7" stop-opacity="0.14"/>
      <stop offset="1" stop-color="#16D9C7" stop-opacity="0"/>
    </radialGradient>
    <filter id="shadow" x="-20%" y="-20%" width="140%" height="140%">
      <feDropShadow dx="0" dy="16" stdDeviation="18" flood-color="#000000" flood-opacity="0.35"/>
    </filter>
  </defs>

  <rect width="512" height="512" rx="96" fill="url(#bg)"/>
  <circle cx="256" cy="256" r="192" fill="url(#glow)"/>

  <g opacity="0.26" stroke="#B0F3FF" stroke-width="1">
    <path d="M96 144h320"/>
    <path d="M96 208h320"/>
    <path d="M96 272h320"/>
    <path d="M96 336h320"/>
    <path d="M144 96v320"/>
    <path d="M208 96v320"/>
    <path d="M272 96v320"/>
    <path d="M336 96v320"/>
  </g>

  <g filter="url(#shadow)">
    <path d="M138 174v166c0 18 12 34 35 46 22 12 52 18 83 18s61-6 83-18c23-12 35-28 35-46V174" fill="#0B1D31" fill-opacity="0.82" stroke="url(#edge)" stroke-width="12" stroke-linejoin="round"/>
    <ellipse cx="256" cy="174" rx="118" ry="44" fill="#123652" stroke="url(#edge)" stroke-width="12"/>
    <path d="M138 236c0 18 12 34 35 46 22 12 52 18 83 18s61-6 83-18c23-12 35-28 35-46" fill="none" stroke="#66F0D5" stroke-width="10" stroke-linecap="round" opacity="0.76"/>
    <path d="M138 300c0 18 12 34 35 46 22 12 52 18 83 18s61-6 83-18c23-12 35-28 35-46" fill="none" stroke="#4FB7FF" stroke-width="10" stroke-linecap="round" opacity="0.7"/>
  </g>

  <g filter="url(#shadow)">
    <path d="M156 190 256 326 356 190" fill="none" stroke="#08111F" stroke-width="30" stroke-linecap="round" stroke-linejoin="round" opacity="0.65"/>
    <path d="M156 190 256 326 356 190" fill="none" stroke="url(#signal)" stroke-width="18" stroke-linecap="round" stroke-linejoin="round"/>
    <circle cx="156" cy="190" r="25" fill="#071524" stroke="#F6D365" stroke-width="12"/>
    <circle cx="256" cy="326" r="28" fill="#071524" stroke="#FFB65C" stroke-width="12"/>
    <circle cx="356" cy="190" r="25" fill="#071524" stroke="#FF8A65" stroke-width="12"/>
    <circle cx="256" cy="326" r="8" fill="#FFFFFF"/>
  </g>

  <path d="M202 162c18-7 36-10 54-10s36 3 54 10" fill="none" stroke="#FFFFFF" stroke-width="8" stroke-linecap="round" opacity="0.52"/>
</svg>
